# xmcd
#
# Track frame offsets: 
#        150
#        18297
#        37168
#        53168
#        67081
#        88644
#        106255
#        121497
#        135341
#        148618
#        167559
#        188005
#        206239
#
# Disc length: 2957 seconds
#
# Revision: 0
# Processed by: cddbd v1.5.2PL0 Copyright (c) Steve Scherf et al.
# Submitted via: ExactAudioCopyFreeDBPlugin 1.0
#
DISCID=b70b8b0d
DTITLE=The Wailin' Jennys - Bright Morning Stars
DYEAR=2011
DGENRE=Country
TTITLE0=Swing Low Sail High
TTITLE1=All The Stars
TTITLE2=Bird Song
TTITLE3=Away But Never Gone
TTITLE4=Storm Comin'
TTITLE5=Mona Louise
TTITLE6=Bright Morning Stars
TTITLE7=Across The Sea
TTITLE8=Asleep At Last
TTITLE9=What Has Been Done
TTITLE10=Cherry Blossom Love
TTITLE11=You Are Here
TTITLE12=Last Goodbye
EXTD=
EXTT0=
EXTT1=
EXTT2=
EXTT3=
EXTT4=
EXTT5=
EXTT6=
EXTT7=
EXTT8=
EXTT9=
EXTT10=
EXTT11=
EXTT12=
PLAYORDER=
